# xmcd
#
# Track frame offsets: 
#        150
#        10575
#        21977
#        32142
#        42305
#        51622
#        63984
#        75331
#        86694
#        97794
#        110162
#        122467
#        131587
#        141440
#        152751
#        164710
#        175560
#        186610
#        196595
#        208795
#        221007
#        233277
#        247387
#        258264
#        270934
#        285357
#        295256
#
# Disc length: 4086 seconds
#
# Revision: 4
# Processed by: cddbd v1.5.2PL0 Copyright (c) Steve Scherf et al.
# Submitted via: ExactAudioCopyFreeDBPlugin 1.0
#
DISCID=810ff41b
DTITLE=VVAA - The complete Motown singles,  vol. 1: 1959-61 [CD1)
DYEAR=2004
DGENRE=R&B/Soul
TTITLE0=MARV JOHSON - Come to me
TTITLE1=MARV JOHSON - Whisper
TTITLE2=EDDIE HOLLAND - Merry-go-round
TTITLE3=EDDIE HOLLAND - It moves me
TTITLE4=BARRETT STRONG - Let's rock
TTITLE5=BARRETT STRONG - Do the very best you can
TTITLE6=CHICO LEVERETT - Solid sender
TTITLE7=CHICO LEVERETT - I'll never love again
TTITLE8=THE SWINGING TIGERS - Snake walk (part 1)
TTITLE9=THE SWINGING TIGERS - Snake walk (part 2)
TTITLE10=RON and BILL - It
TTITLE11=RON and BILL - Don't say bye bye
TTITLE12=THE SATINTONES - Going to the hop
TTITLE13=THE SATINTONES - Motor City
TTITLE14=BARRETT STRONG - Money (that's what I want)
TTITLE15=BARRETT STRONG - Oh I apologize
TTITLE16=NICK and THE JAGUARS - Ich-i-bon #1
TTITLE17=NICK and THE JAGUARS - Cool and crazy
TTITLE18=THE MIRACLES - Bad girl
TTITLE19=THE MIRACLES - I love your baby
TTITLE20=THE MIRACLES - The feeling is so fine
TTITLE21=THE MIRACLES - (You can) Depend on me [first version]
TTITLE22=THE SATINTONES - My beloved [without strings]
TTITLE23=THE SATINTONES - Sugar daddy
TTITLE24=EUGENE REMUS - You never miss a good thing
TTITLE25=EUGENE REMUS - Hold me tight
TTITLE26=EUGENE REMUS - Gotta have your lovin'
EXTD=YEAR: 2004
EXTT0=
EXTT1=
EXTT2=
EXTT3=
EXTT4=
EXTT5=
EXTT6=
EXTT7=
EXTT8=
EXTT9=
EXTT10=
EXTT11=
EXTT12=
EXTT13=
EXTT14=
EXTT15=
EXTT16=
EXTT17=
EXTT18=
EXTT19=
EXTT20=
EXTT21=
EXTT22=
EXTT23=
EXTT24=
EXTT25=
EXTT26=
PLAYORDER=
